<svg width="25" height="24" viewBox="0 0 25 24" fill="none" xmlns="http://www.w3.org/2000/svg">
<path d="M5.2512 6.8635C5.2672 6.203 5.6412 5.612 6.2972 5.5355C6.4862 5.514 6.7032 5.5 6.9502 5.5C7.1972 5.5 7.4142 5.514 7.6032 5.536C8.2597 5.612 8.6332 6.203 8.6492 6.8635C8.6727 7.8355 8.7002 9.5085 8.7002 12C8.7002 14.4915 8.6727 16.1645 8.6492 17.1365C8.6332 17.797 8.2592 18.388 7.6032 18.4645C7.4142 18.486 7.1972 18.5 6.9502 18.5C6.7032 18.5 6.4862 18.486 6.2972 18.4645C5.6407 18.388 5.2672 17.797 5.2512 17.1365C5.2277 16.1645 5.2002 14.4915 5.2002 12C5.2002 9.5085 5.2277 7.8355 5.2512 6.8635ZM20.1492 6.8635C20.1332 6.203 19.7592 5.612 19.1032 5.5355C18.9142 5.514 18.6972 5.5 18.4502 5.5C18.2032 5.5 17.9862 5.514 17.7972 5.536C17.1407 5.612 16.7672 6.203 16.7512 6.8635C16.7277 7.8355 16.7002 9.5085 16.7002 12C16.7002 14.4915 16.7277 16.1645 16.7512 17.1365C16.7672 17.797 17.1412 18.388 17.7972 18.4645C17.9862 18.486 18.2032 18.5 18.4502 18.5C18.6972 18.5 18.9142 18.486 19.1032 18.4645C19.7597 18.388 20.1332 17.797 20.1492 17.1365C20.1727 16.1645 20.2002 14.4915 20.2002 12C20.2002 9.5085 20.1727 7.8355 20.1492 6.8635Z" stroke="#484C52" stroke-width="1.5" stroke-linecap="round" stroke-linejoin="round"/>
<path d="M8.6967 13.4912C11.3657 13.5056 14.0347 13.5034 16.7037 13.4847M16.7032 10.5152C15.4962 10.5067 14.0032 10.5002 12.1997 10.5002C10.8657 10.5002 9.7007 10.5037 8.6962 10.5092M2.2277 9.4017C2.2457 8.6567 2.7197 8.0277 3.4647 8.0037C3.62166 7.99877 3.77873 7.99877 3.9357 8.0037C4.6807 8.0277 5.1547 8.6562 5.1727 9.4017C5.1877 10.0132 5.2002 10.8697 5.2002 12.0002C5.2002 13.1307 5.1872 13.9872 5.1727 14.5987C5.1547 15.3437 4.6807 15.9727 3.9357 15.9967C3.77873 16.0016 3.62166 16.0016 3.4647 15.9967C2.7197 15.9727 2.2457 15.3442 2.2277 14.5987C2.2127 13.9872 2.2002 13.1307 2.2002 12.0002C2.2002 10.8697 2.2132 10.0132 2.2277 9.4017ZM23.1727 9.4017C23.1547 8.6567 22.6807 8.0277 21.9357 8.0037C21.7787 7.99877 21.6217 7.99877 21.4647 8.0037C20.7197 8.0277 20.2457 8.6562 20.2277 9.4017C20.2127 10.0132 20.2002 10.8697 20.2002 12.0002C20.2002 13.1307 20.2132 13.9872 20.2277 14.5987C20.2457 15.3437 20.7197 15.9727 21.4647 15.9967C21.6217 16.0016 21.7787 16.0016 21.9357 15.9967C22.6807 15.9727 23.1547 15.3442 23.1727 14.5987C23.1877 13.9872 23.2002 13.1307 23.2002 12.0002C23.2002 10.8697 23.1872 10.0132 23.1727 9.4017Z" stroke="#484C52" stroke-width="1.5" stroke-linecap="round" stroke-linejoin="round"/>
</svg>
