<svg width="25" height="24" viewBox="0 0 25 24" fill="none" xmlns="http://www.w3.org/2000/svg">
<path d="M20.4004 3.75H5.40039C4.15775 3.75 3.15039 4.75736 3.15039 6V19.5C3.15039 20.7426 4.15775 21.75 5.40039 21.75H20.4004C21.643 21.75 22.6504 20.7426 22.6504 19.5V6C22.6504 4.75736 21.643 3.75 20.4004 3.75Z" stroke="#484C52" stroke-width="1.5" stroke-linejoin="round"/>
<path d="M14.7754 12C15.3967 12 15.9004 11.4963 15.9004 10.875C15.9004 10.2537 15.3967 9.75 14.7754 9.75C14.1541 9.75 13.6504 10.2537 13.6504 10.875C13.6504 11.4963 14.1541 12 14.7754 12Z" fill="#484C52"/>
<path d="M18.5254 12C19.1467 12 19.6504 11.4963 19.6504 10.875C19.6504 10.2537 19.1467 9.75 18.5254 9.75C17.9041 9.75 17.4004 10.2537 17.4004 10.875C17.4004 11.4963 17.9041 12 18.5254 12Z" fill="#484C52"/>
<path d="M14.7754 15.75C15.3967 15.75 15.9004 15.2463 15.9004 14.625C15.9004 14.0037 15.3967 13.5 14.7754 13.5C14.1541 13.5 13.6504 14.0037 13.6504 14.625C13.6504 15.2463 14.1541 15.75 14.7754 15.75Z" fill="#484C52"/>
<path d="M18.5254 15.75C19.1467 15.75 19.6504 15.2463 19.6504 14.625C19.6504 14.0037 19.1467 13.5 18.5254 13.5C17.9041 13.5 17.4004 14.0037 17.4004 14.625C17.4004 15.2463 17.9041 15.75 18.5254 15.75Z" fill="#484C52"/>
<path d="M7.27539 15.75C7.89671 15.75 8.40039 15.2463 8.40039 14.625C8.40039 14.0037 7.89671 13.5 7.27539 13.5C6.65407 13.5 6.15039 14.0037 6.15039 14.625C6.15039 15.2463 6.65407 15.75 7.27539 15.75Z" fill="#484C52"/>
<path d="M11.0254 15.75C11.6467 15.75 12.1504 15.2463 12.1504 14.625C12.1504 14.0037 11.6467 13.5 11.0254 13.5C10.4041 13.5 9.90039 14.0037 9.90039 14.625C9.90039 15.2463 10.4041 15.75 11.0254 15.75Z" fill="#484C52"/>
<path d="M7.27539 19.5C7.89671 19.5 8.40039 18.9963 8.40039 18.375C8.40039 17.7537 7.89671 17.25 7.27539 17.25C6.65407 17.25 6.15039 17.7537 6.15039 18.375C6.15039 18.9963 6.65407 19.5 7.27539 19.5Z" fill="#484C52"/>
<path d="M11.0254 19.5C11.6467 19.5 12.1504 18.9963 12.1504 18.375C12.1504 17.7537 11.6467 17.25 11.0254 17.25C10.4041 17.25 9.90039 17.7537 9.90039 18.375C9.90039 18.9963 10.4041 19.5 11.0254 19.5Z" fill="#484C52"/>
<path d="M14.7754 19.5C15.3967 19.5 15.9004 18.9963 15.9004 18.375C15.9004 17.7537 15.3967 17.25 14.7754 17.25C14.1541 17.25 13.6504 17.7537 13.6504 18.375C13.6504 18.9963 14.1541 19.5 14.7754 19.5Z" fill="#484C52"/>
<path d="M6.90039 2.25V3.75M18.9004 2.25V3.75" stroke="#484C52" stroke-width="1.5" stroke-linecap="round" stroke-linejoin="round"/>
<path d="M22.6504 7.5H3.15039" stroke="#484C52" stroke-width="1.5" stroke-linejoin="round"/>
</svg>
