<svg width="29" height="29" viewBox="0 0 29 29" fill="none" xmlns="http://www.w3.org/2000/svg">
<path d="M27.1456 9.17481C26.4574 7.5323 25.4562 6.03937 24.1978 4.77921C22.9432 3.51688 21.4529 2.51325 19.8114 1.8253C18.1299 1.11712 16.3232 0.754116 14.4987 0.757841H14.4373C12.5816 0.767043 10.7871 1.13513 9.09699 1.85904C7.46965 2.55405 5.9933 3.55947 4.75047 4.81909C3.50428 6.0764 2.51455 7.56411 1.83643 9.19935C1.13252 10.8998 0.775837 12.7239 0.787381 14.5642C0.796583 16.693 1.30577 18.8065 2.25667 20.696V25.3585C2.25667 26.1376 2.88856 26.7695 3.66461 26.7695H8.32093C10.2193 27.7274 12.3141 28.2314 14.4404 28.2418H14.5048C16.3391 28.2418 18.1152 27.886 19.79 27.1897C21.4231 26.51 22.9079 25.518 24.161 24.2695C25.4248 23.015 26.4186 21.5487 27.1149 19.9138C27.8358 18.2206 28.2039 16.42 28.2131 14.5612C28.2192 12.6931 27.8573 10.8803 27.1456 9.17481ZM8.37615 15.9722C7.56635 15.9722 6.90686 15.3127 6.90686 14.4998C6.90686 13.687 7.56635 13.0275 8.37615 13.0275C9.18594 13.0275 9.84544 13.687 9.84544 14.4998C9.84544 15.3127 9.18901 15.9722 8.37615 15.9722ZM14.4987 15.9722C13.6889 15.9722 13.0294 15.3127 13.0294 14.4998C13.0294 13.687 13.6889 13.0275 14.4987 13.0275C15.3085 13.0275 15.968 13.687 15.968 14.4998C15.968 15.3127 15.3085 15.9722 14.4987 15.9722ZM20.6212 15.9722C19.8114 15.9722 19.152 15.3127 19.152 14.4998C19.152 13.687 19.8114 13.0275 20.6212 13.0275C21.431 13.0275 22.0905 13.687 22.0905 14.4998C22.0905 15.3127 21.431 15.9722 20.6212 15.9722Z" fill="#913F9E"/>
</svg>
