<svg width="12" height="12" viewBox="0 0 12 12" fill="none" xmlns="http://www.w3.org/2000/svg">
<path d="M4.77473 7.94021L9.17573 3.53971C9.2244 3.49104 9.28173 3.46504 9.34773 3.46171C9.41373 3.45838 9.47423 3.48438 9.52923 3.53971C9.58423 3.59504 9.6119 3.65454 9.61223 3.71821C9.61256 3.78188 9.58506 3.84121 9.52973 3.89621L5.05773 8.37121C4.97673 8.45221 4.8824 8.49271 4.77473 8.49271C4.66706 8.49271 4.57273 8.45221 4.49173 8.37121L2.46673 6.34621C2.41806 6.29754 2.39273 6.23971 2.39073 6.17271C2.38873 6.10571 2.41506 6.04471 2.46973 5.98971C2.5244 5.93471 2.5839 5.90721 2.64823 5.90721C2.71256 5.90721 2.77206 5.93471 2.82673 5.98971L4.77473 7.94021Z" fill="#8E8E8E"/>
</svg>
