<svg width="30" height="27" viewBox="0 0 30 27" fill="none" xmlns="http://www.w3.org/2000/svg">
<path d="M22.0004 8.85938C21.8459 11.0041 20.2549 12.6562 18.5199 12.6562C16.7849 12.6562 15.1913 11.0046 15.0394 8.85938C14.8812 6.62818 16.43 5.0625 18.5199 5.0625C20.6098 5.0625 22.1586 6.66879 22.0004 8.85938Z" stroke="#484C52" stroke-width="2" stroke-linecap="round" stroke-linejoin="round"/>
<path d="M18.5193 16.0312C15.0826 16.0312 11.7778 17.7383 10.9498 21.0626C10.8401 21.5024 11.1159 21.9375 11.5679 21.9375H25.4713C25.9232 21.9375 26.1974 21.5024 26.0893 21.0626C25.2614 17.685 21.9565 16.0312 18.5193 16.0312Z" stroke="#484C52" stroke-width="2" stroke-miterlimit="10"/>
<path d="M11.3476 9.80543C11.2242 11.5182 9.93855 12.8672 8.55269 12.8672C7.16683 12.8672 5.87906 11.5188 5.75777 9.80543C5.63173 8.02354 6.88312 6.75 8.55269 6.75C10.2223 6.75 11.4736 8.05623 11.3476 9.80543Z" stroke="#484C52" stroke-width="2" stroke-linecap="round" stroke-linejoin="round"/>
<path d="M11.6636 16.1365C10.7117 15.7004 9.66339 15.5327 8.55227 15.5327C5.81009 15.5327 3.16809 16.8959 2.50628 19.5511C2.41927 19.9023 2.6397 20.2498 3.0004 20.2498H8.92141" stroke="#484C52" stroke-width="2" stroke-miterlimit="10" stroke-linecap="round"/>
<path d="M26.3941 5.28771C26.7827 6.33234 26.983 7.45582 26.983 8.59095C26.983 9.72609 26.7827 10.8496 26.3941 11.8942C26.3522 12.0065 26.2822 12.1023 26.193 12.1697C26.1039 12.237 25.9993 12.2728 25.8924 12.2728C25.8022 12.2729 25.7133 12.2474 25.6338 12.1985C25.5543 12.1497 25.4866 12.079 25.4369 11.9929C25.3872 11.9068 25.3569 11.8079 25.3489 11.7052C25.3408 11.6024 25.3552 11.499 25.3907 11.4042C25.7218 10.5145 25.8924 9.55771 25.8924 8.59095C25.8924 7.6242 25.7218 6.66737 25.3907 5.77774C25.3339 5.62567 25.3322 5.45401 25.3861 5.30053C25.44 5.14705 25.545 5.02432 25.678 4.95933C25.8111 4.89435 25.9613 4.89244 26.0956 4.95403C26.2299 5.01561 26.3373 5.13564 26.3941 5.28771Z" fill="#484C52"/>
<path d="M29.4371 9.01755C29.4394 10.5689 29.2042 12.1045 28.746 13.5298C28.6925 13.6843 28.5959 13.8048 28.477 13.8657C28.358 13.9266 28.226 13.9232 28.1089 13.8561C27.9918 13.789 27.8989 13.6636 27.8498 13.5064C27.8008 13.3493 27.7995 13.1728 27.8462 13.0144C28.2497 11.7509 28.4577 10.3913 28.4577 9.01755C28.4577 7.64377 28.2497 6.28421 27.8462 5.02073C27.8187 4.94129 27.8033 4.85526 27.8011 4.76774C27.7988 4.68022 27.8098 4.59298 27.8332 4.51121C27.8566 4.42943 27.8921 4.35477 27.9375 4.29166C27.9829 4.22854 28.0374 4.17824 28.0976 4.14374C28.1578 4.10925 28.2226 4.09125 28.2881 4.09083C28.3536 4.0904 28.4185 4.10755 28.479 4.14126C28.5395 4.17498 28.5943 4.22456 28.6401 4.28709C28.686 4.34961 28.722 4.42381 28.746 4.50528C29.2042 5.93062 29.4394 7.4662 29.4371 9.01755Z" fill="#484C52"/>
</svg>
