<svg width="22" height="22" viewBox="0 0 22 22" fill="none" xmlns="http://www.w3.org/2000/svg">
<path d="M11.4587 2.75383C10.6424 2.74127 9.82591 2.76175 9.01124 2.81525C5.1759 3.07008 2.12157 6.1675 1.8704 10.0569C1.82184 10.8261 1.82184 11.5977 1.8704 12.3669C1.96207 13.7832 2.58815 15.0949 3.32607 16.2022C3.75415 16.9768 3.47182 17.9439 3.0254 18.79C2.70457 19.3996 2.54324 19.7039 2.67249 19.9239C2.80082 20.1439 3.08957 20.1512 3.66615 20.165C4.8074 20.1925 5.57649 19.8698 6.18699 19.4197C6.53257 19.164 6.70582 19.0366 6.82499 19.0219C6.94415 19.0072 7.17974 19.1044 7.64907 19.2969C8.07074 19.4711 8.56115 19.5783 9.01032 19.6086C10.3166 19.6947 11.6815 19.6947 12.9905 19.6086C16.8249 19.3537 19.8792 16.2554 20.1304 12.3669C20.1689 11.7665 20.1772 11.1496 20.1552 10.5418M13.7504 5.04183H20.1671M16.9587 1.8335V8.25016" stroke="black" stroke-width="1.5" stroke-linecap="round" stroke-linejoin="round"/>
<path d="M10.9961 11.4585H11.0052M14.6591 11.4585H14.6673M7.33398 11.4585H7.34223" stroke="black" stroke-width="2" stroke-linecap="round" stroke-linejoin="round"/>
</svg>
