<svg width="25" height="25" viewBox="0 0 25 25" fill="none" xmlns="http://www.w3.org/2000/svg">
<path d="M22.5661 8.26174C22.0184 6.95444 21.2215 5.76619 20.2199 4.76321C19.2214 3.75849 18.0352 2.95969 16.7287 2.41213C15.3904 1.84848 13.9524 1.55956 12.5002 1.56252H12.4514C10.9743 1.56985 9.54611 1.86282 8.2009 2.43899C6.90567 2.99216 5.73062 3.79239 4.74143 4.79494C3.74956 5.79566 2.96182 6.97976 2.42209 8.28127C1.86183 9.6347 1.57794 11.0865 1.58713 12.5513C1.59445 14.2456 1.99973 15.9278 2.75656 17.4317V21.1426C2.75656 21.7627 3.25949 22.2656 3.87717 22.2656H7.58322C9.09414 23.0281 10.7615 23.4292 12.4538 23.4375H12.5051C13.9651 23.4375 15.3786 23.1543 16.7116 22.6001C18.0115 22.0591 19.1932 21.2696 20.1906 20.2759C21.1965 19.2774 21.9875 18.1104 22.5417 16.8091C23.1154 15.4614 23.4084 14.0283 23.4157 12.5489C23.4206 11.062 23.1325 9.61916 22.5661 8.26174ZM7.62717 13.6719C6.98264 13.6719 6.45774 13.147 6.45774 12.5C6.45774 11.853 6.98264 11.3281 7.62717 11.3281C8.2717 11.3281 8.7966 11.853 8.7966 12.5C8.7966 13.147 8.27414 13.6719 7.62717 13.6719ZM12.5002 13.6719C11.8557 13.6719 11.3308 13.147 11.3308 12.5C11.3308 11.853 11.8557 11.3281 12.5002 11.3281C13.1447 11.3281 13.6697 11.853 13.6697 12.5C13.6697 13.147 13.1447 13.6719 12.5002 13.6719ZM17.3733 13.6719C16.7287 13.6719 16.2038 13.147 16.2038 12.5C16.2038 11.853 16.7287 11.3281 17.3733 11.3281C18.0178 11.3281 18.5427 11.853 18.5427 12.5C18.5427 13.147 18.0178 13.6719 17.3733 13.6719Z" fill="#913F9E"/>
</svg>
