<svg width="32" height="32" viewBox="0 0 32 32" fill="none" xmlns="http://www.w3.org/2000/svg">
<path d="M27.9803 16.7042C28.1231 14.2746 27.5238 11.859 26.2619 9.77794C24.9999 7.69688 23.1351 6.04872 20.9147 5.05215C18.6943 4.05558 16.2234 3.75771 13.8298 4.19807C11.4362 4.63842 9.23302 5.79619 7.51269 7.51774C5.79236 9.23929 4.63616 11.4432 4.19751 13.8372C3.75885 16.2311 4.05847 18.7018 5.05662 20.9215C6.05476 23.1412 7.70425 25.0049 9.7862 26.2653C11.8682 27.5258 14.2842 28.1234 16.7136 27.9788M21.3336 25.3335H29.3336M25.3336 21.3335V29.3335M12.0003 13.3335H12.0136M20.0003 13.3335H20.0136" stroke="white" stroke-width="2" stroke-linecap="round" stroke-linejoin="round"/>
<path d="M12.667 20C13.5443 20.8533 14.747 21.3333 16.0003 21.3333C17.2537 21.3333 18.4563 20.8533 19.3337 20" stroke="white" stroke-width="2" stroke-linecap="round" stroke-linejoin="round"/>
</svg>
