<svg width="33" height="29" viewBox="0 0 33 29" fill="none" xmlns="http://www.w3.org/2000/svg">
<path fill-rule="evenodd" clip-rule="evenodd" d="M9.55062 28.7686C9.42438 28.7599 9.29812 28.753 9.1725 28.7417C8.46625 28.6755 7.81813 28.4449 7.24312 28.0292C6.25125 27.3105 5.61687 26.3549 5.36437 25.153C5.27266 24.7033 5.24176 24.2434 5.2725 23.7855C5.30664 23.2489 5.41129 22.7191 5.58375 22.2099C5.85813 21.3924 6.27125 20.6505 6.79437 19.9667C7.1883 19.454 7.63421 18.9833 8.125 18.5624C8.58241 18.1646 9.00692 17.7304 9.39437 17.2642C9.88688 16.6799 10.3319 16.0605 10.7725 15.4367C11.1613 14.8855 11.5437 14.3305 11.9562 13.798C12.2629 13.3933 12.5981 13.011 12.9594 12.6542C13.4156 12.2124 13.9194 11.8386 14.5131 11.5955C14.9547 11.4145 15.426 11.3166 15.9031 11.3067C16.4455 11.2934 16.9874 11.3508 17.515 11.4774C18.3116 11.6718 19.0422 12.0745 19.6319 12.6442C20.0456 13.038 20.3956 13.4842 20.7206 13.9505C21.0662 14.4455 21.3831 14.9586 21.71 15.4655C22.0787 16.0361 22.46 16.598 22.885 17.1292C23.3078 17.6581 23.7767 18.1483 24.2863 18.5942C24.9034 19.1304 25.4515 19.7411 25.9181 20.4124C26.3183 20.9865 26.6376 21.613 26.8669 22.2742C27.0455 22.7895 27.1515 23.3272 27.1819 23.8717C27.2256 24.7042 27.0819 25.5005 26.7038 26.2492C26.3538 26.943 25.8475 27.5011 25.2125 27.943C24.745 28.2686 24.2406 28.5161 23.6856 28.6536C23.4891 28.7033 23.2892 28.7382 23.0875 28.758C23.0596 28.7609 23.0321 28.7651 23.005 28.7705C22.9788 28.7849 22.95 28.7736 22.9219 28.7767C22.8988 28.7805 22.875 28.7705 22.8531 28.7842H22.3356C22.315 28.7699 22.2919 28.7799 22.27 28.7774H22.1606C21.7194 28.763 21.2912 28.6711 20.8637 28.5717C20.1406 28.403 19.4312 28.1811 18.7113 27.998C18.1301 27.8456 17.5391 27.7332 16.9425 27.6617C16.529 27.6179 16.1129 27.605 15.6975 27.623C15.3663 27.6342 15.0363 27.6855 14.71 27.7461C14.0662 27.8674 13.4356 28.0399 12.8044 28.2124C12.1369 28.3961 11.4694 28.578 10.7856 28.6899C10.5075 28.7349 10.2294 28.7736 9.94625 28.7711C9.88813 28.7699 9.83063 28.7786 9.77188 28.7774C9.69688 28.773 9.62375 28.7861 9.55 28.7692M22.3063 0.137988C23.2362 0.249863 23.9475 0.722988 24.4906 1.46861C24.8625 1.97986 25.0969 2.55361 25.2419 3.16674C25.3635 3.69306 25.415 4.23316 25.395 4.77299C25.3644 5.75881 25.1259 6.72705 24.695 7.61424C24.4024 8.23462 24.0035 8.79898 23.5163 9.28174C23.0769 9.71174 22.58 10.0555 22 10.2699C21.5925 10.4199 21.1737 10.4949 20.74 10.4686C19.9888 10.4255 19.3506 10.1267 18.815 9.60549C18.3575 9.16049 18.0462 8.62174 17.8306 8.02611C17.6826 7.61057 17.584 7.17907 17.5369 6.74049C17.5026 6.44054 17.49 6.1385 17.4994 5.83674C17.5219 5.12507 17.649 4.43299 17.8806 3.76049C18.1191 3.04752 18.4806 2.38184 18.9487 1.79361C19.3487 1.29736 19.8156 0.877363 20.3756 0.567363C20.7826 0.337766 21.2314 0.191984 21.6956 0.138613C21.71 0.130488 21.7256 0.134238 21.74 0.132988H21.7844C21.8063 0.130488 21.8287 0.140488 21.8481 0.125488H22.1531C22.1725 0.141113 22.195 0.130488 22.2162 0.132988H22.2612C22.2756 0.132988 22.2913 0.129863 22.3063 0.137988ZM0.903125 11.1249C0.9175 10.8411 0.96875 10.5624 1.04313 10.288C1.18813 9.75486 1.42437 9.26924 1.79312 8.85361C2.18951 8.39522 2.72828 8.08314 3.32312 7.96736C3.81812 7.86986 4.30687 7.91111 4.78687 8.05986C5.33938 8.22986 5.8275 8.51986 6.26188 8.89736C6.93563 9.48174 7.41937 10.2011 7.75375 11.0236C7.92875 11.4549 8.04979 11.9007 8.11687 12.3611C8.14937 12.5842 8.165 12.8086 8.17 13.0349C8.1806 13.4608 8.13307 13.8862 8.02875 14.2992C7.88688 14.8524 7.64813 15.3555 7.26813 15.7867C6.84935 16.2741 6.27051 16.596 5.63562 16.6949C5.15687 16.7724 4.68625 16.7199 4.22625 16.5711C3.6075 16.3705 3.07625 16.0255 2.60875 15.5786C2.15853 15.1451 1.78642 14.6373 1.50875 14.0774C1.2313 13.5299 1.04229 12.942 0.94875 12.3355L0.905 12.0117C0.89375 11.9624 0.89875 11.9117 0.88625 11.863C0.880625 11.8424 0.88375 11.823 0.883125 11.8017C0.879375 11.7761 0.89125 11.748 0.875 11.7224V11.3261C0.9 11.2899 0.8875 11.2499 0.89 11.2111C0.8925 11.1824 0.885 11.1511 0.903125 11.1249ZM7.43625 4.77674C7.43937 3.99049 7.55125 3.28236 7.81437 2.59986C8.0125 2.08424 8.285 1.61299 8.66438 1.20736C9.0725 0.768613 9.5575 0.454863 10.1425 0.306738C10.7275 0.158613 11.3025 0.200488 11.8675 0.404863C12.3656 0.586113 12.8 0.870488 13.1862 1.22986C13.8019 1.80236 14.2425 2.49424 14.5569 3.26986C14.7565 3.76278 14.895 4.27216 14.9725 4.79799C15.0171 5.09591 15.0425 5.39591 15.0487 5.69799C15.0567 6.07818 15.0299 6.45829 14.9688 6.83361C14.8381 7.61861 14.5719 8.34986 14.0969 8.99611C13.8091 9.39762 13.4352 9.72968 13.0025 9.96799C12.5214 10.2321 11.9732 10.3486 11.4263 10.303C10.9225 10.2649 10.4575 10.0999 10.0244 9.84299C9.45938 9.50861 9.00187 9.05736 8.62062 8.52611C8.17586 7.89832 7.85083 7.1938 7.66188 6.44799C7.55438 6.0386 7.48492 5.62015 7.45438 5.19799C7.44044 5.05802 7.43439 4.91738 7.43625 4.77674ZM32.1238 11.5861V11.6774C32.0894 12.4355 31.8863 13.1486 31.5594 13.8286C31.3043 14.3598 30.9692 14.8486 30.5656 15.278C30.0438 15.8311 29.4381 16.263 28.7175 16.5217C28.2908 16.6798 27.8364 16.75 27.3819 16.728C26.722 16.6996 26.0944 16.4347 25.6138 15.9817C25.2025 15.5992 24.9319 15.1292 24.7606 14.6005C24.6093 14.1288 24.5416 13.6343 24.5606 13.1392C24.5944 12.0442 24.94 11.0492 25.54 10.1386C25.7418 9.83099 25.9747 9.54491 26.235 9.28486C26.7706 8.75111 27.3831 8.34111 28.1088 8.10799C28.5164 7.974 28.9463 7.92051 29.3744 7.95049C30.0181 7.99325 30.6262 8.26094 31.0925 8.70674C31.5275 9.11736 31.8025 9.62424 31.9681 10.1942C32.06 10.5086 32.1138 10.8305 32.1244 11.1586V11.2505C32.121 11.3623 32.1204 11.4743 32.1238 11.5861Z" fill="white"/>
</svg>
