<svg width="64" height="64" viewBox="0 0 64 64" fill="none" xmlns="http://www.w3.org/2000/svg">
<path d="M32 32C34.7689 32 37.4757 31.1789 39.778 29.6406C42.0803 28.1022 43.8747 25.9157 44.9343 23.3576C45.9939 20.7994 46.2712 17.9845 45.731 15.2687C45.1908 12.553 43.8574 10.0584 41.8995 8.10051C39.9416 6.14258 37.447 4.80921 34.7313 4.26901C32.0155 3.72882 29.2006 4.00607 26.6424 5.06569C24.0843 6.12532 21.8978 7.91973 20.3594 10.222C18.8211 12.5243 18 15.2311 18 18C18 21.713 19.475 25.274 22.1005 27.8995C24.726 30.525 28.287 32 32 32ZM32 36C23.3225 36 6 41.36 6 52V60H58V52C58 41.36 40.6775 36 32 36Z" fill="#7B347E"/>
</svg>
