<svg width="37" height="37" viewBox="0 0 37 37" fill="none" xmlns="http://www.w3.org/2000/svg">
<path d="M20.3271 34.2128C20.3271 35.3595 21.3842 36.2374 22.4951 35.9866C24.5017 35.5207 26.4009 34.7324 28.0851 33.6574C29.0346 33.0482 29.178 31.6866 28.3717 30.8803C27.7984 30.307 26.8846 30.1636 26.2038 30.5936C24.8242 31.4716 23.3013 32.1166 21.6709 32.4749C20.8646 32.654 20.3271 33.3886 20.3271 34.2128ZM4.22005 18.4999C4.22005 11.7095 8.96797 6.01197 15.3284 4.5428C16.1167 4.36363 16.6721 3.62905 16.6721 2.8228C16.6721 1.67613 15.5971 0.798216 14.4863 1.06697C10.5475 1.98009 7.03417 4.20056 4.51909 7.36637C2.00401 10.5322 0.635519 14.4566 0.63672 18.4999C0.63672 26.9924 6.54922 34.1053 14.4863 35.9507C15.5971 36.2195 16.6721 35.3416 16.6721 34.1949C16.6721 33.3707 16.1167 32.654 15.3284 32.4749C8.96797 30.9878 4.22005 25.2903 4.22005 18.4999ZM34.2484 16.7082C35.3951 16.7082 36.273 15.6511 36.0221 14.5403C35.5563 12.5336 34.768 10.6524 33.693 8.9503C33.0838 7.9828 31.7221 7.85738 30.9159 8.66363C30.3426 9.23697 30.1992 10.1507 30.6471 10.8315C31.5251 12.1932 32.1701 13.7161 32.5284 15.3645C32.6896 16.1707 33.4242 16.7082 34.2484 16.7082ZM28.0851 3.3603C26.383 2.2853 24.5017 1.49697 22.4951 1.03113C21.3842 0.780299 20.3271 1.65822 20.3271 2.78697C20.3271 3.59322 20.8646 4.34572 21.653 4.50697C23.2834 4.8653 24.8242 5.52822 26.1859 6.38822C26.8846 6.81822 27.7805 6.6928 28.3538 6.10155C28.5472 5.91906 28.6962 5.69471 28.7895 5.4457C28.8827 5.19669 28.9177 4.92964 28.8918 4.66501C28.8659 4.40038 28.7797 4.1452 28.6398 3.91904C28.5 3.69288 28.3102 3.50175 28.0851 3.3603ZM30.898 28.3361C31.7042 29.1424 33.0659 29.017 33.6751 28.0495C34.7501 26.3653 35.5384 24.4661 36.0042 22.4595C36.2551 21.3486 35.3771 20.2915 34.2484 20.2915C33.4421 20.2915 32.6896 20.8291 32.5284 21.6174C32.1701 23.2478 31.5071 24.7886 30.6471 26.1503C30.1813 26.8491 30.3246 27.7628 30.898 28.3361Z" fill="#913F9E"/>
<path d="M25.6663 16.8876C25.6663 12.4263 22.2622 9.54175 18.4997 9.54175C14.7372 9.54175 11.333 12.4263 11.333 16.8876C11.333 19.593 13.3038 22.7642 17.2634 26.3834C17.9622 27.0284 19.0193 27.0284 19.7359 26.3834C23.6955 22.7463 25.6663 19.593 25.6663 16.8876ZM18.4997 18.5001C18.0056 18.4787 17.5388 18.2674 17.1967 17.9102C16.8547 17.553 16.6637 17.0776 16.6637 16.583C16.6637 16.0884 16.8547 15.613 17.1967 15.2558C17.5388 14.8986 18.0056 14.6873 18.4997 14.6659C18.9938 14.6873 19.4605 14.8986 19.8026 15.2558C20.1447 15.613 20.3356 16.0884 20.3356 16.583C20.3356 17.0776 20.1447 17.553 19.8026 17.9102C19.4605 18.2674 18.9938 18.4787 18.4997 18.5001Z" fill="#913F9E"/>
</svg>
