<svg width="24" height="24" viewBox="0 0 24 24" fill="none" xmlns="http://www.w3.org/2000/svg">
<path fill-rule="evenodd" clip-rule="evenodd" d="M5.66895 4.76001C5.69596 4.53295 5.77556 4.31532 5.90143 4.12442C6.0273 3.93352 6.19597 3.77462 6.39403 3.66035C6.59209 3.54608 6.81408 3.47959 7.04234 3.46616C7.27061 3.45273 7.49886 3.49274 7.70895 3.58301C8.77095 4.03701 11.1509 5.11601 14.1709 6.85901C17.1919 8.60301 19.3169 10.126 20.2399 10.817C21.0279 11.408 21.0299 12.58 20.2409 13.173C19.3269 13.86 17.2279 15.363 14.1709 17.129C11.1109 18.895 8.75895 19.961 7.70695 20.409C6.80095 20.796 5.78695 20.209 5.66895 19.232C5.53095 18.09 5.27295 15.497 5.27295 11.995C5.27295 8.49501 5.52995 5.90301 5.66895 4.76001Z" fill="#F3F3F3"/>
</svg>
