<svg width="22" height="22" viewBox="0 0 22 22" fill="none" xmlns="http://www.w3.org/2000/svg">
<path fill-rule="evenodd" clip-rule="evenodd" d="M11.5158 2.9335H10.4836L9.89234 5.29666L9.29926 5.48C8.95366 5.58649 8.61883 5.72521 8.29917 5.89433L7.75009 6.18491L5.66009 4.93091L4.93042 5.6615L6.18442 7.7515L5.89384 8.29966C5.72441 8.61928 5.58538 8.95411 5.47859 9.29975L5.29617 9.89283L2.93301 10.4841V11.5162L5.29617 12.1075L5.47951 12.7006C5.58523 13.0477 5.72334 13.3811 5.89384 13.7007L6.18442 14.2497L4.93042 16.3397L5.66101 17.0694L7.75101 15.8154L8.29917 16.106C8.61879 16.2759 8.95215 16.4143 9.29926 16.5212L9.89234 16.7037L10.4836 19.0668H11.5158L12.107 16.7037L12.7001 16.5203C13.0457 16.4138 13.3805 16.2751 13.7002 16.106L14.2493 15.8154L16.3393 17.0694L17.0689 16.3388L15.8149 14.2488L16.1055 13.7007C16.2754 13.3811 16.4138 13.0477 16.5208 12.7006L16.7032 12.1075L19.0663 11.5162V10.4841L16.7032 9.89283L16.5198 9.29975C16.4133 8.95415 16.2746 8.61932 16.1055 8.29966L15.8149 7.75058L17.0689 5.66058L16.3383 4.93091L14.2483 6.18491L13.7002 5.89433C13.3806 5.72489 13.0457 5.58587 12.7001 5.47908L12.107 5.29666L11.5158 2.9335ZM14.2153 4.92266L15.8956 3.91433C16.0708 3.80924 16.2761 3.7657 16.4789 3.79061C16.6816 3.81552 16.8703 3.90746 17.0148 4.05183L17.948 4.985C18.0924 5.12955 18.1843 5.3182 18.2092 5.52098C18.2341 5.72375 18.1906 5.92904 18.0855 6.10425L17.0772 7.7845C17.2788 8.16338 17.4438 8.56061 17.5722 8.97616L19.4724 9.45191C19.6707 9.50157 19.8466 9.61604 19.9723 9.77714C20.098 9.93824 20.1663 10.1367 20.1663 10.3411V11.6592C20.1663 11.8636 20.098 12.0621 19.9723 12.2232C19.8466 12.3843 19.6707 12.4988 19.4724 12.5484L17.5722 13.0242C17.4438 13.4397 17.2788 13.8369 17.0772 14.2158L18.0855 15.8961C18.1906 16.0713 18.2341 16.2766 18.2092 16.4793C18.1843 16.6821 18.0924 16.8708 17.948 17.0153L17.0148 17.9485C16.8703 18.0929 16.6816 18.1848 16.4789 18.2097C16.2761 18.2346 16.0708 18.1911 15.8956 18.086L14.2153 17.0777C13.8365 17.2793 13.4392 17.4443 13.0237 17.5727L12.5479 19.4729C12.4983 19.6711 12.3838 19.8471 12.2227 19.9728C12.0616 20.0985 11.8631 20.1668 11.6588 20.1668H10.3406C10.1362 20.1668 9.93775 20.0985 9.77665 19.9728C9.61555 19.8471 9.50108 19.6711 9.45142 19.4729L8.97567 17.5727C8.56381 17.4454 8.16483 17.2797 7.78401 17.0777L6.10376 18.086C5.92855 18.1911 5.72327 18.2346 5.52049 18.2097C5.31771 18.1848 5.12907 18.0929 4.98451 17.9485L4.05134 17.0153C3.90697 16.8708 3.81503 16.6821 3.79012 16.4793C3.76521 16.2766 3.80876 16.0713 3.91384 15.8961L4.92217 14.2158C4.72018 13.835 4.55445 13.436 4.42717 13.0242L2.52692 12.5484C2.32885 12.4988 2.15301 12.3845 2.02731 12.2235C1.9016 12.0626 1.83322 11.8644 1.83301 11.6602V10.342C1.83301 10.1376 1.9013 9.93915 2.02703 9.77806C2.15275 9.61696 2.3287 9.50249 2.52692 9.45283L4.42717 8.97708C4.55551 8.56152 4.72051 8.1643 4.92217 7.78541L3.91384 6.10516C3.80876 5.92996 3.76521 5.72467 3.79012 5.52189C3.81503 5.31912 3.90697 5.13047 4.05134 4.98591L4.98451 4.05183C5.12907 3.90746 5.31771 3.81552 5.52049 3.79061C5.72327 3.7657 5.92855 3.80924 6.10376 3.91433L7.78401 4.92266C8.1629 4.721 8.56012 4.556 8.97567 4.42766L9.45142 2.52741C9.50104 2.32934 9.61538 2.1535 9.77629 2.0278C9.9372 1.90209 10.1355 1.83371 10.3397 1.8335H11.6578C11.8622 1.8335 12.0607 1.90179 12.2218 2.02751C12.3829 2.15324 12.4973 2.32919 12.547 2.52741L13.0228 4.42766C13.4383 4.556 13.8355 4.721 14.2144 4.92266H14.2153ZM10.9997 13.5668C11.6804 13.5668 12.3332 13.2964 12.8146 12.8151C13.2959 12.3337 13.5663 11.6809 13.5663 11.0002C13.5663 10.3194 13.2959 9.6666 12.8146 9.18525C12.3332 8.70391 11.6804 8.4335 10.9997 8.4335C10.319 8.4335 9.66611 8.70391 9.18477 9.18525C8.70342 9.6666 8.43301 10.3194 8.43301 11.0002C8.43301 11.6809 8.70342 12.3337 9.18477 12.8151C9.66611 13.2964 10.319 13.5668 10.9997 13.5668ZM10.9997 14.6668C10.0272 14.6668 9.09458 14.2805 8.40695 13.5929C7.71932 12.9053 7.33301 11.9726 7.33301 11.0002C7.33301 10.0277 7.71932 9.09507 8.40695 8.40744C9.09458 7.7198 10.0272 7.3335 10.9997 7.3335C11.9721 7.3335 12.9048 7.7198 13.5924 8.40744C14.28 9.09507 14.6663 10.0277 14.6663 11.0002C14.6663 11.9726 14.28 12.9053 13.5924 13.5929C12.9048 14.2805 11.9721 14.6668 10.9997 14.6668Z" fill="black"/>
</svg>
