<svg width="264" height="87" viewBox="0 0 264 87" fill="none" xmlns="http://www.w3.org/2000/svg">
<path d="M99.1162 17.3805C227.108 -10.3134 290.139 5.91672 251.926 33.6106" stroke="url(#paint0_linear_4_142)" stroke-width="2" stroke-linecap="round"/>
<path d="M5.96752 57.0315C-20.7816 84.7254 63.7794 94.2581 180.76 63.6879" stroke="url(#paint1_linear_4_142)" stroke-width="2" stroke-linecap="round"/>
<path d="M222.304 60.5899C220.655 60.3982 219.351 59.823 218.392 58.8642C217.472 57.9055 217.012 56.6975 217.012 55.2402C217.012 54.128 217.28 52.9775 217.817 51.7887L230.99 21.8184C231.719 20.131 232.984 19.2874 234.787 19.2874C236.551 19.2874 237.797 20.131 238.526 21.8184L251.699 51.7887C252.236 53.0542 252.504 54.2047 252.504 55.2402C252.504 56.6975 252.025 57.9055 251.066 58.8642C250.146 59.823 248.842 60.3982 247.155 60.5899L242.322 49.6603H227.194L222.304 60.5899ZM239.964 43.1025L233.636 27.3408L232.946 27.6284L234.327 31.1949L229.495 43.1025H239.964Z" fill="url(#paint2_linear_4_142)"/>
<path d="M202.629 25.0398C202.629 23.2374 203.3 21.8376 204.642 20.8405C205.985 19.8051 207.883 19.2874 210.337 19.2874V54.8375C210.337 56.6783 209.666 58.0972 208.324 59.0943C206.982 60.0914 205.083 60.5899 202.629 60.5899V25.0398Z" fill="url(#paint3_linear_4_142)"/>
<path d="M162.998 23.314C162.998 22.317 163.362 21.4924 164.091 20.8405C164.82 20.1502 165.74 19.8051 166.852 19.8051H182.211C186.353 19.8051 189.555 20.898 191.818 23.084C194.119 25.2699 195.269 28.3379 195.269 32.2879C195.269 34.5505 194.809 36.468 193.889 38.0403C192.968 39.5743 191.569 40.8015 189.689 41.7219V41.8945C193.064 43.3901 194.752 46.228 194.752 50.4081V54.895C194.752 56.7358 194.1 58.1547 192.796 59.1518C191.492 60.1106 189.574 60.5899 187.043 60.5899V50.7532C187.043 48.7207 186.641 47.2251 185.835 46.2663C185.03 45.3076 183.803 44.8282 182.154 44.8282H170.591V54.895C170.591 56.7741 169.939 58.1931 168.635 59.1518C167.37 60.1106 165.491 60.5899 162.998 60.5899V23.314ZM181.809 38.2704C183.649 38.2704 185.068 37.7527 186.065 36.7173C187.062 35.6435 187.561 34.1478 187.561 32.2303C187.561 28.3187 185.644 26.3628 181.809 26.3628H170.591V38.2704H181.809Z" fill="url(#paint4_linear_4_142)"/>
<path d="M127.197 60.5899C125.548 60.3982 124.244 59.823 123.285 58.8642C122.364 57.9055 121.904 56.6975 121.904 55.2402C121.904 54.128 122.173 52.9775 122.71 51.7887L135.883 21.8184C136.611 20.131 137.877 19.2874 139.679 19.2874C141.443 19.2874 142.69 20.131 143.418 21.8184L156.592 51.7887C157.128 53.0542 157.397 54.2047 157.397 55.2402C157.397 56.6975 156.918 57.9055 155.959 58.8642C155.038 59.823 153.735 60.3982 152.047 60.5899L147.215 49.6603H132.086L127.197 60.5899ZM144.857 43.1025L138.529 27.3408L137.839 27.6284L139.219 31.1949L134.387 43.1025H144.857Z" fill="url(#paint5_linear_4_142)"/>
<path d="M84.126 25.385C84.126 23.5058 84.7587 22.0294 86.0243 20.9556C87.2898 19.8434 88.9964 19.2874 91.144 19.2874L110.587 49.6603L111.162 49.2001L108.804 45.2884V19.2874C111.297 19.2874 113.176 19.7667 114.441 20.7255C115.745 21.6842 116.397 23.1031 116.397 24.9823V55.3552C116.397 56.7742 115.784 58.0013 114.556 59.0368C113.368 60.0722 111.987 60.5899 110.415 60.5899L89.936 28.5488L89.3607 29.0665L91.7192 32.9782V54.895C91.7192 56.7742 91.0673 58.1931 89.7634 59.1518C88.4978 60.1106 86.6187 60.5899 84.126 60.5899V25.385Z" fill="url(#paint6_linear_4_142)"/>
<path d="M60.6982 60.5899C57.4769 60.5899 54.5623 59.938 51.9545 58.6341C49.3851 57.3302 47.3717 55.5278 45.9144 53.2268C44.4572 50.9258 43.7285 48.3181 43.7285 45.4035V24.9823C43.7285 23.1415 44.3805 21.7417 45.6844 20.783C46.9882 19.7859 48.9057 19.2874 51.4368 19.2874V45.4035C51.4368 47.9729 52.2805 50.0246 53.9679 51.5586C55.6553 53.0926 57.8987 53.8596 60.6982 53.8596C63.4978 53.8596 65.7412 53.0926 67.4286 51.5586C69.116 50.0246 69.9597 47.9729 69.9597 45.4035V24.9823C69.9597 23.1031 70.6116 21.6842 71.9155 20.7255C73.2194 19.7667 75.1369 19.2874 77.668 19.2874V45.4035C77.668 48.3181 76.9393 50.9258 75.482 53.2268C74.0248 55.5278 71.9922 57.3302 69.3844 58.6341C66.815 59.938 63.9196 60.5899 60.6982 60.5899Z" fill="url(#paint7_linear_4_142)"/>
<path d="M16.9212 60.0722C15.8091 60.0722 14.8504 59.6696 14.045 58.8642C13.278 58.0589 12.8945 57.1001 12.8945 55.988V24.9823C12.8945 23.0648 13.5273 21.6459 14.7928 20.7255C16.0584 19.7667 17.995 19.2874 20.6028 19.2874V53.3994H36.1344C37.9369 53.3994 39.2983 53.9746 40.2187 55.1251C41.1391 56.2373 41.5993 57.8863 41.5993 60.0722H16.9212Z" fill="url(#paint8_linear_4_142)"/>
<path d="M230.025 4.10889C230.025 6.37817 228.186 8.21779 225.917 8.21779C223.647 8.21779 221.808 6.37817 221.808 4.10889C221.808 1.83961 223.647 0 225.917 0C228.186 0 230.025 1.83961 230.025 4.10889Z" fill="#5E136E"/>
<path d="M45.2481 82.5888C45.2481 84.8581 43.4084 86.6977 41.1392 86.6977C38.8699 86.6977 37.0303 84.8581 37.0303 82.5888C37.0303 80.3195 38.8699 78.4799 41.1392 78.4799C43.4084 78.4799 45.2481 80.3195 45.2481 82.5888Z" fill="#360A46"/>
<defs>
<linearGradient id="paint0_linear_4_142" x1="110.251" y1="7.93008" x2="258.418" y2="70.0155" gradientUnits="userSpaceOnUse">
<stop offset="0.229099" stop-color="#330942"/>
<stop offset="0.480968" stop-color="#5A126A"/>
<stop offset="0.766594" stop-color="#5E136E"/>
<stop offset="0.933584" stop-color="#831A94"/>
</linearGradient>
<linearGradient id="paint1_linear_4_142" x1="1.03659" y1="57.0315" x2="180.76" y2="79.3017" gradientUnits="userSpaceOnUse">
<stop stop-color="#240637"/>
<stop offset="0.334236" stop-color="#2E083D"/>
<stop offset="0.731354" stop-color="#581168"/>
</linearGradient>
<linearGradient id="paint2_linear_4_142" x1="-5.94792" y1="14.0526" x2="266.225" y2="81.1919" gradientUnits="userSpaceOnUse">
<stop stop-color="#210535"/>
<stop offset="0.412335" stop-color="#320940"/>
<stop offset="0.930597" stop-color="#901DA1"/>
</linearGradient>
<linearGradient id="paint3_linear_4_142" x1="-5.94871" y1="14.0526" x2="266.224" y2="81.1919" gradientUnits="userSpaceOnUse">
<stop stop-color="#210535"/>
<stop offset="0.412335" stop-color="#320940"/>
<stop offset="0.930597" stop-color="#901DA1"/>
</linearGradient>
<linearGradient id="paint4_linear_4_142" x1="-5.94835" y1="14.0526" x2="266.225" y2="81.1919" gradientUnits="userSpaceOnUse">
<stop stop-color="#210535"/>
<stop offset="0.412335" stop-color="#320940"/>
<stop offset="0.930597" stop-color="#901DA1"/>
</linearGradient>
<linearGradient id="paint5_linear_4_142" x1="-5.94891" y1="14.0526" x2="266.224" y2="81.1919" gradientUnits="userSpaceOnUse">
<stop stop-color="#210535"/>
<stop offset="0.412335" stop-color="#320940"/>
<stop offset="0.930597" stop-color="#901DA1"/>
</linearGradient>
<linearGradient id="paint6_linear_4_142" x1="-5.94892" y1="14.0526" x2="266.224" y2="81.192" gradientUnits="userSpaceOnUse">
<stop stop-color="#210535"/>
<stop offset="0.412335" stop-color="#320940"/>
<stop offset="0.930597" stop-color="#901DA1"/>
</linearGradient>
<linearGradient id="paint7_linear_4_142" x1="-5.9489" y1="14.0526" x2="266.224" y2="81.192" gradientUnits="userSpaceOnUse">
<stop stop-color="#210535"/>
<stop offset="0.412335" stop-color="#320940"/>
<stop offset="0.930597" stop-color="#901DA1"/>
</linearGradient>
<linearGradient id="paint8_linear_4_142" x1="-5.94885" y1="14.0526" x2="266.224" y2="81.1919" gradientUnits="userSpaceOnUse">
<stop stop-color="#210535"/>
<stop offset="0.412335" stop-color="#320940"/>
<stop offset="0.930597" stop-color="#901DA1"/>
</linearGradient>
</defs>
</svg>
